<?xml version="1.0" encoding="UTF-8"?>
<svg xmlns="http://www.w3.org/2000/svg" xmlns:xlink="http://www.w3.org/1999/xlink" width="251.25pt" height="189.000001pt" viewBox="0 0 251.25 189.000001" version="1.2">
<defs>
<clipPath id="clip1">
  <path d="M 140.085938 65.445312 L 250.117188 65.445312 L 250.117188 173.882812 L 140.085938 173.882812 Z M 140.085938 65.445312 "/>
</clipPath>
<clipPath id="clip2">
  <path d="M 0.289062 0 L 208 0 L 208 166 L 0.289062 166 Z M 0.289062 0 "/>
</clipPath>
</defs>
<g id="surface1">
<g clip-path="url(#clip1)" clip-rule="nonzero">
<path style=" stroke:none;fill-rule:nonzero;fill:rgb(10.978699%,12.548828%,15.289307%);fill-opacity:1;" d="M 250.117188 109.683594 C 250.117188 91.121094 236.535156 74.839844 216.109375 65.632812 C 217.859375 71.035156 218.816406 76.65625 218.816406 82.4375 C 218.816406 117.203125 185.402344 146.367188 140.328125 154.382812 C 151.199219 159.03125 163.90625 161.707031 177.488281 161.707031 C 188.089844 161.707031 198.148438 160.066406 207.230469 157.144531 L 244.269531 173.78125 L 231.011719 144.84375 C 242.871094 135.582031 250.117188 123.242188 250.117188 109.683594 "/>
</g>
<g clip-path="url(#clip2)" clip-rule="nonzero">
<path style=" stroke:none;fill-rule:nonzero;fill:rgb(10.978699%,12.548828%,15.289307%);fill-opacity:1;" d="M 145.808594 82.980469 C 140.40625 82.980469 136.027344 78.609375 136.027344 73.21875 C 136.027344 67.828125 140.40625 63.457031 145.808594 63.457031 C 151.207031 63.457031 155.585938 67.828125 155.585938 73.21875 C 155.585938 78.609375 151.207031 82.980469 145.808594 82.980469 Z M 103.871094 82.980469 C 98.472656 82.980469 94.09375 78.609375 94.09375 73.21875 C 94.09375 67.828125 98.472656 63.457031 103.871094 63.457031 C 109.273438 63.457031 113.652344 67.828125 113.652344 73.21875 C 113.652344 78.609375 109.273438 82.980469 103.871094 82.980469 Z M 61.9375 82.980469 C 56.539062 82.980469 52.160156 78.609375 52.160156 73.21875 C 52.160156 67.828125 56.539062 63.457031 61.9375 63.457031 C 67.339844 63.457031 71.71875 67.828125 71.71875 73.21875 C 71.71875 78.609375 67.339844 82.980469 61.9375 82.980469 Z M 103.871094 0 C 46.710938 0 0.371094 33.191406 0.371094 74.136719 C 0.371094 93.457031 10.695312 111.046875 27.597656 124.238281 L 8.703125 165.480469 L 61.492188 141.769531 C 74.429688 145.9375 88.765625 148.273438 103.871094 148.273438 C 161.035156 148.273438 207.375 115.082031 207.375 74.136719 C 207.375 33.191406 161.035156 0 103.871094 0 "/>
</g>
</g>
</svg>
