<?xml version="1.0" encoding="UTF-8"?>
<svg xmlns="http://www.w3.org/2000/svg" xmlns:xlink="http://www.w3.org/1999/xlink" width="40.5pt" height="38.999999pt" viewBox="0 0 40.5 38.999999" version="1.2">
<defs>
<clipPath id="clip1">
  <path d="M 1.613281 1.210938 L 39.113281 1.210938 L 39.113281 37.960938 L 1.613281 37.960938 Z M 1.613281 1.210938 "/>
</clipPath>
</defs>
<g id="surface1">
<g clip-path="url(#clip1)" clip-rule="nonzero">
<path style=" stroke:none;fill-rule:evenodd;fill:rgb(91.369629%,29.40979%,20.779419%);fill-opacity:1;" d="M 39.347656 20.082031 C 39.347656 30.496094 30.898438 38.949219 20.480469 38.949219 C 10.0625 38.949219 1.613281 30.496094 1.613281 20.082031 C 1.613281 9.664062 10.0625 1.210938 20.480469 1.210938 C 30.898438 1.210938 39.347656 9.664062 39.347656 20.082031 Z M 39.347656 20.082031 "/>
</g>
<path style=" stroke:none;fill-rule:evenodd;fill:rgb(100%,100%,100%);fill-opacity:1;" d="M 20.480469 17.652344 L 25.332031 12.800781 L 27.761719 15.230469 L 22.910156 20.082031 L 27.761719 24.933594 L 25.332031 27.363281 L 20.480469 22.511719 L 15.628906 27.363281 L 13.199219 24.933594 L 18.050781 20.082031 L 13.199219 15.230469 L 15.628906 12.800781 Z M 20.480469 17.652344 "/>
</g>
</svg>
