<?xml version="1.0" encoding="UTF-8"?>
<svg xmlns="http://www.w3.org/2000/svg" xmlns:xlink="http://www.w3.org/1999/xlink" width="59.25pt" height="51.749998pt" viewBox="0 0 59.25 51.749998" version="1.2">
<defs>
<clipPath id="clip1">
  <path d="M 13 4 L 57.425781 4 L 57.425781 47 L 13 47 Z M 13 4 "/>
</clipPath>
<clipPath id="clip2">
  <path d="M 1.152344 0.199219 L 17 0.199219 L 17 51.304688 L 1.152344 51.304688 Z M 1.152344 0.199219 "/>
</clipPath>
</defs>
<g id="surface1">
<g clip-path="url(#clip1)" clip-rule="nonzero">
<path style=" stroke:none;fill-rule:nonzero;fill:rgb(95.689392%,57.249451%,33.329773%);fill-opacity:1;" d="M 57.363281 25.21875 C 57.347656 25.082031 57.347656 24.945312 57.324219 24.8125 C 57.285156 24.621094 57.21875 24.429688 57.15625 24.246094 C 57.125 24.140625 57.105469 24.03125 57.066406 23.929688 C 56.984375 23.730469 56.871094 23.539062 56.761719 23.347656 C 56.71875 23.269531 56.683594 23.179688 56.632812 23.097656 C 56.503906 22.910156 56.355469 22.734375 56.199219 22.558594 C 56.140625 22.492188 56.097656 22.417969 56.035156 22.355469 L 56.039062 22.355469 L 40 6.332031 C 38.117188 4.453125 35.066406 4.453125 33.183594 6.332031 C 31.300781 8.214844 31.300781 11.261719 33.183594 13.140625 L 40.957031 20.90625 L 18.023438 20.90625 L 18.023438 20.921875 C 15.488281 21.058594 13.472656 23.152344 13.472656 25.722656 C 13.472656 28.289062 15.488281 30.382812 18.023438 30.523438 L 18.023438 30.535156 L 40.957031 30.535156 L 33.183594 38.300781 C 31.300781 40.179688 31.300781 43.230469 33.183594 45.109375 C 35.066406 46.988281 38.117188 46.988281 40 45.109375 L 56.039062 29.089844 L 56.035156 29.085938 C 56.09375 29.03125 56.132812 28.964844 56.183594 28.902344 C 56.34375 28.722656 56.503906 28.539062 56.632812 28.34375 C 56.679688 28.265625 56.710938 28.1875 56.753906 28.113281 C 56.867188 27.914062 56.980469 27.71875 57.066406 27.511719 C 57.105469 27.414062 57.121094 27.308594 57.15625 27.207031 C 57.21875 27.015625 57.285156 26.824219 57.324219 26.628906 C 57.347656 26.496094 57.347656 26.359375 57.363281 26.222656 C 57.378906 26.054688 57.410156 25.890625 57.410156 25.722656 C 57.410156 25.554688 57.378906 25.386719 57.363281 25.21875 "/>
</g>
<g clip-path="url(#clip2)" clip-rule="nonzero">
<path style=" stroke:none;fill-rule:nonzero;fill:rgb(95.689392%,57.249451%,33.329773%);fill-opacity:1;" d="M 14.375 45.96875 C 12.179688 45.96875 9.203125 46.507812 7.417969 44.976562 C 6.191406 43.925781 6.425781 42.050781 6.425781 40.609375 C 6.425781 35.648438 6.425781 30.683594 6.425781 25.722656 C 6.425781 20.757812 6.425781 15.796875 6.425781 10.832031 C 6.425781 9.238281 6.269531 7.800781 7.417969 6.464844 C 8.816406 4.835938 12.476562 5.472656 14.375 5.472656 C 17.777344 5.472656 17.777344 0.207031 14.375 0.207031 C 11.332031 0.207031 8.574219 0.03125 5.714844 1.238281 C 2.710938 2.507812 1.152344 6.148438 1.152344 9.195312 C 1.152344 14.703125 1.152344 20.210938 1.152344 25.722656 C 1.152344 31.230469 1.152344 36.738281 1.152344 42.246094 C 1.152344 45.675781 2.832031 48.414062 5.714844 50.203125 C 8.160156 51.71875 11.636719 51.234375 14.375 51.234375 C 17.777344 51.234375 17.777344 45.96875 14.375 45.96875 "/>
</g>
</g>
</svg>
